<svg width="96" height="22" viewBox="0 0 96 22" fill="none" xmlns="http://www.w3.org/2000/svg">
<g clip-path="url(#clip0_95_3799)">
<path d="M40.7452 8.66155C39.7146 8.66155 38.8638 8.90269 38.2093 9.36906C37.5382 9.83619 37.1788 10.4952 37.0643 11.3324H38.455C38.5369 10.8978 38.7985 10.5437 39.1914 10.2859C39.5675 10.0288 40.074 9.89989 40.6633 9.89989C41.3511 9.89989 41.8743 10.0447 42.2671 10.3663C42.6432 10.6878 42.8237 11.1231 42.8237 11.6698V12.2484H40.2712C39.1261 12.2484 38.2753 12.4903 37.6861 12.9408C37.081 13.3912 36.786 14.0669 36.786 14.92C36.786 15.6919 37.081 16.288 37.6702 16.7377C38.2427 17.1889 39.0116 17.4133 39.9762 17.4133C41.2358 17.4133 42.2019 16.931 42.8889 15.9816L43.0034 17.317H44.2145V11.7661C44.2145 10.7848 43.9028 10.0129 43.3144 9.48129C42.7092 8.93454 41.8417 8.66155 40.7452 8.66155ZM42.8396 13.8257C42.8396 14.5499 42.5939 15.13 42.1033 15.563C41.6127 16.0142 40.9416 16.2395 40.0915 16.2395C39.5182 16.2395 39.0602 16.1113 38.7167 15.8527C38.3731 15.5956 38.2093 15.2582 38.2093 14.8396C38.2093 13.8902 38.8638 13.423 40.1567 13.423H42.8404L42.8396 13.8257ZM47.1583 5.47584C46.8967 5.47584 46.6843 5.55546 46.5038 5.73291C46.3294 5.90126 46.2339 6.13482 46.2422 6.37597C46.2422 6.6338 46.3241 6.84309 46.5038 7.01978C46.6843 7.19723 46.8967 7.27761 47.1583 7.27761C47.4199 7.27761 47.6322 7.19723 47.8135 7.02054C47.9932 6.84309 48.0743 6.6338 48.0743 6.37597C48.0743 6.11965 47.9932 5.9096 47.8127 5.73291C47.6383 5.56305 47.4025 5.47053 47.1583 5.47584ZM45.0797 10.0288H46.4538V17.3011H47.8446V8.77378H45.0797V10.0288ZM61.966 9.19161C61.3442 8.83824 60.6086 8.67671 59.8071 8.67671C58.5468 8.67671 57.5655 9.15976 56.8292 10.141L56.6494 8.77302H55.4384V20.6476H56.8292V15.9983C57.1249 16.4328 57.5314 16.7832 58.0076 17.0114C58.4982 17.2685 59.12 17.3974 59.8071 17.3974C60.6086 17.3974 61.3283 17.2207 61.9501 16.8499C62.5788 16.4783 63.0936 15.9445 63.4394 15.306C63.7989 14.6462 63.9627 13.8902 63.9627 13.0371C63.9627 12.1362 63.7989 11.3483 63.4394 10.6878C63.0785 10.0447 62.5878 9.52982 61.966 9.19161ZM61.7696 15.2893C61.2471 15.8686 60.5427 16.175 59.6759 16.175C59.12 16.175 58.6294 16.0461 58.2032 15.7723C57.7604 15.4978 57.4078 15.1005 57.1894 14.6303C56.9429 14.1472 56.8292 13.6164 56.8292 12.9893C56.8292 12.394 56.9437 11.8465 57.1894 11.3642C57.4343 10.8971 57.7619 10.5278 58.2032 10.2533C58.6294 9.99619 59.12 9.86804 59.6759 9.86804C60.5427 9.86804 61.2471 10.157 61.7696 10.7363C62.2936 11.3157 62.556 12.0884 62.556 13.0052C62.556 13.9546 62.2936 14.7107 61.7696 15.2893ZM49.7608 10.4315V17.3011H51.1516V10.0288H54.1621V8.77378H51.4458C50.5131 8.77378 49.7601 9.49722 49.7601 10.4307L49.7608 10.4315ZM66.9725 5.58807H65.5809V17.3011H66.9725V5.58807ZM72.5021 8.66155C71.4716 8.66155 70.6207 8.90269 69.9663 9.36906C69.2952 9.83619 68.935 10.4952 68.8213 11.3324H70.212C70.2932 10.8978 70.5555 10.5437 70.9476 10.2859C71.3245 10.0288 71.831 9.89989 72.4202 9.89989C73.1073 9.89989 73.6313 10.0447 74.0233 10.3663C74.4002 10.6878 74.5799 11.1231 74.5799 11.6698V12.2484H72.0274C70.8824 12.2484 70.0315 12.4903 69.4431 12.9408C68.8372 13.3912 68.5429 14.0669 68.5429 14.92C68.5429 15.6919 68.8372 16.288 69.4256 16.7377C69.9989 17.1889 70.7679 17.4133 71.7332 17.4133C72.9928 17.4133 73.9581 16.931 74.6452 15.9816L74.7597 17.317H75.9707V11.7661C75.9707 10.7848 75.6598 10.0129 75.0713 9.48129C74.4654 8.93454 73.5979 8.66155 72.5021 8.66155ZM74.5966 13.8257C74.5966 14.5499 74.3509 15.13 73.8603 15.563C73.3697 16.0142 72.6985 16.2395 71.8477 16.2395C71.2752 16.2395 70.8172 16.1113 70.4736 15.8527C70.1294 15.5956 69.9663 15.2582 69.9663 14.8396C69.9663 13.8902 70.6208 13.423 71.9137 13.423H74.5966V13.8257ZM82.0262 8.66155C80.7818 8.66155 79.8339 9.07938 79.1628 9.91581L78.9823 8.75785H77.772V17.2852H79.1628V13.0211C79.1628 12.0717 79.4085 11.3005 79.8657 10.753C80.3245 10.2055 80.9782 9.91581 81.7805 9.91581C82.5494 9.91581 83.122 10.1577 83.5307 10.6082C83.9235 11.0745 84.1199 11.7502 84.1199 12.6352V17.3011H85.5107V12.5548C85.5107 11.2194 85.1839 10.2222 84.562 9.61021C83.9402 8.98308 83.0894 8.66155 82.0262 8.66155ZM95.2119 13.2949C95.2286 13.0211 95.2453 12.8278 95.2453 12.7155C95.2286 11.895 95.0489 11.1708 94.6887 10.5596C94.3285 9.94842 93.8545 9.46537 93.2486 9.15976C92.6435 8.83824 91.9397 8.67671 91.1382 8.67671C90.3359 8.67671 89.617 8.85416 88.9952 9.20754C88.3734 9.57229 87.8729 10.1092 87.5551 10.7522C87.1957 11.412 87.0311 12.1688 87.0311 13.0371C87.0311 13.8902 87.2116 14.6621 87.5711 15.306C87.9313 15.9816 88.4226 16.4965 89.0604 16.8499C89.7148 17.2207 90.4512 17.3974 91.3187 17.3974C92.2999 17.3974 93.1341 17.1085 93.8211 16.5602C94.5082 16.0142 94.9336 15.306 95.0981 14.4377H93.6907C93.5436 14.9837 93.2486 15.403 92.8239 15.7086C92.3818 16.0294 91.8578 16.175 91.2201 16.175C90.4178 16.175 89.7641 15.9179 89.2568 15.4189C88.7654 14.92 88.4871 14.2436 88.4712 13.4071V13.2949H95.2119ZM89.4039 10.5119C89.8945 10.0925 90.4671 9.86728 91.1382 9.86728C91.8745 9.86728 92.4797 10.0606 92.9711 10.4626C93.445 10.8652 93.7233 11.4279 93.7893 12.1521H88.5531C88.6183 11.4764 88.9133 10.9297 89.4039 10.5119ZM10.8908 0L17.8977 0.00303343C18.4278 0.00303343 18.9108 0.306362 19.136 0.781829C20.5829 3.84848 25.9132 15.1384 28.0622 19.6906C28.2594 20.1092 28.2275 20.5975 27.9773 20.9865C27.7255 21.3763 27.291 21.6122 26.8247 21.6122H23.7792C22.7638 21.6122 21.7947 21.1936 21.1039 20.4557C20.5207 19.8324 19.8276 19.0907 19.359 18.5887C19.0132 18.2202 18.5286 18.0109 18.0205 18.0109L10.655 18.0086C10.1477 18.0086 9.66308 18.2179 9.31805 18.5865L7.5724 20.4534C6.88157 21.1905 5.91244 21.6099 4.89628 21.6099H1.96386C1.49749 21.6099 1.06297 21.3748 0.811209 20.9858C0.560962 20.596 0.528355 20.1069 0.725519 19.6891L9.65247 0.780313C9.87769 0.304845 10.36 0.00075845 10.8908 0.00075845V0ZM22.0988 17.4475C21.0197 14.8767 16.9832 6.07795 15.2223 2.25146C15.0745 1.92917 14.7499 1.72139 14.3927 1.72139C14.0348 1.72139 13.7102 1.92917 13.5624 2.25146C11.8031 6.07719 7.76805 14.8745 6.6882 17.4459C6.65104 17.5385 6.66317 17.6431 6.71929 17.725C6.7754 17.8077 6.86944 17.8577 6.96953 17.8577H8.34436C8.90325 17.8585 9.43256 17.6044 9.77835 17.1692L11.7811 14.6462C12.1269 14.2109 12.6547 13.9569 13.2143 13.9561L15.5734 13.9592C16.1331 13.9592 16.6616 14.2125 17.0074 14.6477L19.0102 17.1707C19.3559 17.6059 19.8837 17.86 20.4426 17.8607H21.8175C21.9183 17.86 22.0123 17.8099 22.0685 17.7273C22.1246 17.6446 22.136 17.54 22.0988 17.4475Z" fill="#151516"/>
</g>
<defs>
<clipPath id="clip0_95_3799">
<rect width="95.9873" height="21.9913" fill="white"/>
</clipPath>
</defs>
</svg>
