<svg width="48" height="48" viewBox="0 0 48 48" fill="none" xmlns="http://www.w3.org/2000/svg">
<path d="M0 12C0 5.37258 5.37258 0 12 0H35.9936C42.6211 0 47.9936 5.37258 47.9936 12V35.9936C47.9936 42.6211 42.6211 47.9936 35.9936 47.9936H12C5.37258 47.9936 0 42.6211 0 35.9936V12Z" fill="#F59E42" fill-opacity="0.1"/>
<path d="M26.7462 14.834H21.2483C20.7423 14.834 20.332 15.2442 20.332 15.7503V17.5829C20.332 18.089 20.7423 18.4992 21.2483 18.4992H26.7462C27.2522 18.4992 27.6625 18.089 27.6625 17.5829V15.7503C27.6625 15.2442 27.2522 14.834 26.7462 14.834Z" stroke="#F59E42" stroke-width="1.83261" stroke-linecap="round" stroke-linejoin="round"/>
<path d="M27.6636 16.668H29.4962C29.9823 16.668 30.4484 16.861 30.7921 17.2047C31.1358 17.5484 31.3288 18.0145 31.3288 18.5006V31.3288C31.3288 31.8149 31.1358 32.281 30.7921 32.6247C30.4484 32.9684 29.9823 33.1615 29.4962 33.1615H18.5006C18.0145 33.1615 17.5484 32.9684 17.2047 32.6247C16.861 32.281 16.668 31.8149 16.668 31.3288V18.5006C16.668 18.0145 16.861 17.5484 17.2047 17.2047C17.5484 16.861 18.0145 16.668 18.5006 16.668H20.3332" stroke="#F59E42" stroke-width="1.83261" stroke-linecap="round" stroke-linejoin="round"/>
<path d="M21.248 25.8307L23.0807 27.6633L26.7459 23.998" stroke="#F59E42" stroke-width="1.83261" stroke-linecap="round" stroke-linejoin="round"/>
</svg>
