<svg width="63" height="20" viewBox="0 0 63 20" fill="none" xmlns="http://www.w3.org/2000/svg">
<g clip-path="url(#clip0_95_3805)">
<path d="M28.7528 13.7556C28.4294 14.0829 28.04 14.3433 27.6098 14.5192C27.1796 14.6951 26.7172 14.7842 26.2501 14.7796C25.856 14.7911 25.4635 14.7243 25.0971 14.5822C24.7307 14.4401 24.398 14.2265 24.12 13.9546C23.6137 13.4391 23.3218 12.704 23.3218 11.8267C23.3218 10.0722 24.4933 8.87155 26.2501 8.87155C26.7218 8.86464 27.188 8.95989 27.6175 9.14963C28.0469 9.34014 28.4271 9.61976 28.7328 9.97005L30.2531 8.65877C29.2621 7.48577 27.6551 6.87891 26.1287 6.87891C23.1413 6.87891 21.0234 8.88845 21.0234 11.8436C21.0234 13.3055 21.5496 14.5369 22.4376 15.4057C23.3249 16.2752 24.5901 16.7853 26.0496 16.7853C27.9447 16.7853 29.4572 16.0348 30.3061 15.0915L28.7528 13.7556Z" fill="#151516"/>
<path d="M31.6797 3.13281H33.9427V16.6312H31.6797V3.13281Z" fill="#151516"/>
<path d="M44.8433 12.594C44.881 12.2998 44.9017 12.004 44.9055 11.7075C44.9055 8.9083 43.0274 6.88185 40.1229 6.88185C39.4822 6.86879 38.8454 6.98479 38.2524 7.22215C37.6593 7.45875 37.1224 7.81134 36.6745 8.25842C35.8257 9.12723 35.3164 10.3586 35.3164 11.8266C35.3164 14.8186 37.4781 16.7882 40.3441 16.7882C42.2676 16.7882 43.6519 16.0278 44.4823 14.9976L42.9997 13.7171L42.926 13.6556C42.6317 14.0151 42.2569 14.3032 41.8305 14.4975C41.4034 14.6927 40.9364 14.7887 40.4655 14.7787C39.0106 14.7787 37.9612 13.9506 37.6616 12.594H44.8433ZM37.6993 10.8218C37.8007 10.394 38.0073 9.9968 38.3023 9.66572C38.5474 9.40454 38.8477 9.19867 39.1819 9.06117C39.516 8.92443 39.8771 8.85914 40.2396 8.87066C41.5325 8.87066 42.3421 9.65957 42.621 10.8218H37.6993Z" fill="#151516"/>
<path d="M51.9022 6.85352V9.31552C51.6403 9.29555 51.3768 9.27557 51.2162 9.27557C49.5032 9.27557 48.5315 10.4762 48.5315 12.0518V16.6309H46.2715V6.99025H48.5315V8.45055H48.5514C49.3196 7.42657 50.4204 6.85659 51.6203 6.85659L51.9022 6.85352Z" fill="#151516"/>
<path d="M57.17 12.5937L55.5361 14.3674V16.6312H53.2754V3.13281H55.5361V11.413L59.5721 7.02132H62.2569L58.7056 10.9006L62.3191 16.6312H59.7757L57.2123 12.5937H57.17Z" fill="#151516"/>
<path d="M15.6377 2.91899L13.2817 5.21814C13.2072 5.29035 13.1104 5.33644 13.0067 5.34873C12.903 5.36025 12.7977 5.33798 12.7079 5.28497C11.7814 4.73957 10.7121 4.46763 9.63054 4.50143C8.54818 4.536 7.49961 4.87553 6.61083 5.47855C6.06389 5.84958 5.58915 6.31279 5.20891 6.8459C4.59129 7.71394 4.24408 8.73718 4.20874 9.79266C4.17341 10.8481 4.45149 11.8913 5.00995 12.797C5.06372 12.8838 5.086 12.986 5.07371 13.0874C5.06142 13.188 5.01456 13.2825 4.94081 13.3547L2.58482 15.6538C2.53719 15.6999 2.48035 15.736 2.41659 15.7591C2.3536 15.7821 2.28677 15.7921 2.21917 15.7875C2.15234 15.7821 2.08704 15.7637 2.02789 15.7322C1.96874 15.6999 1.91727 15.6561 1.87733 15.6039C0.60293 13.8939 -0.0561653 11.8199 0.00375239 9.70585C0.0636701 7.59257 0.839524 5.55767 2.20918 3.91915C2.62784 3.41754 3.09719 2.9597 3.6111 2.5518C5.29033 1.21518 7.37516 0.458522 9.54144 0.40014C11.7077 0.341759 13.8325 0.983954 15.5847 2.22763C15.6392 2.26681 15.6845 2.31674 15.7176 2.37435C15.7498 2.43197 15.7698 2.49572 15.7744 2.56179C15.7798 2.62708 15.7698 2.69315 15.7468 2.75537C15.7229 2.81682 15.6861 2.8729 15.6377 2.91899Z" fill="#151516"/>
<path d="M15.637 17.0202L13.2802 14.721C13.2064 14.6488 13.1097 14.6035 13.0052 14.5912C12.9015 14.5789 12.7962 14.6012 12.7071 14.6542C11.8329 15.1689 10.8312 15.4408 9.81111 15.4408C8.7902 15.4408 7.7885 15.1689 6.91509 14.6542C6.82521 14.6012 6.71997 14.5789 6.61627 14.5912C6.51256 14.6035 6.41577 14.6488 6.34126 14.721L3.98526 17.0202C3.9361 17.067 3.89769 17.1231 3.87311 17.1853C3.84853 17.2483 3.83777 17.3151 3.84315 17.382C3.84776 17.4488 3.86773 17.5133 3.90153 17.5717C3.93457 17.6301 3.98066 17.6808 4.03673 17.7192C5.71366 18.9106 7.73473 19.5513 9.80957 19.5513C11.8836 19.5513 13.9047 18.9106 15.5824 17.7192C15.6377 17.6808 15.6846 17.6301 15.7184 17.5725C15.7522 17.5141 15.7722 17.4496 15.7775 17.3827C15.7829 17.3159 15.7729 17.2491 15.7483 17.1861C15.7238 17.1239 15.6861 17.067 15.637 17.0202Z" fill="#151516"/>
<path d="M9.81479 12.7053C11.3634 12.7053 12.6186 11.4801 12.6186 9.96985C12.6186 8.45885 11.3634 7.23438 9.81479 7.23438C8.26692 7.23438 7.01172 8.45885 7.01172 9.96985C7.01172 11.4801 8.26692 12.7053 9.81479 12.7053Z" fill="#151516"/>
</g>
<defs>
<clipPath id="clip0_95_3805">
<rect width="62.9904" height="19.9957" fill="white"/>
</clipPath>
</defs>
</svg>
