<svg width="32" height="32" viewBox="0 0 32 32" fill="none" xmlns="http://www.w3.org/2000/svg">
<path d="M0 4C0 1.79086 1.79086 0 4 0H28C30.2091 0 32 1.79086 32 4V28C32 30.2091 30.2091 32 28 32H4C1.79086 32 0 30.2091 0 28V4Z" fill="#0F2137"/>
<mask id="path-2-inside-1_100_2891" fill="white">
<path d="M8 16C8 12.6863 10.6863 10 14 10H18C21.3137 10 24 12.6863 24 16C24 19.3137 21.3137 22 18 22H14C10.6863 22 8 19.3137 8 16Z"/>
</mask>
<path d="M8 16M24 16M24 16M8 16M14 10V10.6667H18V10V9.33333H14V10ZM24 16M18 22V21.3333H14V22V22.6667H18V22ZM8 16M14 22V21.3333C11.0545 21.3333 8.66667 18.9455 8.66667 16H8H7.33333C7.33333 19.6819 10.3181 22.6667 14 22.6667V22ZM24 16H23.3333C23.3333 18.9455 20.9455 21.3333 18 21.3333V22V22.6667C21.6819 22.6667 24.6667 19.6819 24.6667 16H24ZM18 10V10.6667C20.9455 10.6667 23.3333 13.0545 23.3333 16H24H24.6667C24.6667 12.3181 21.6819 9.33333 18 9.33333V10ZM14 10V9.33333C10.3181 9.33333 7.33333 12.3181 7.33333 16H8H8.66667C8.66667 13.0545 11.0545 10.6667 14 10.6667V10Z" fill="white" mask="url(#path-2-inside-1_100_2891)"/>
</svg>
