<svg width="44" height="44" viewBox="0 0 44 44" fill="none" xmlns="http://www.w3.org/2000/svg">
<path d="M0 12C0 5.37258 5.37258 0 12 0H31.9826C38.6101 0 43.9826 5.37258 43.9826 12V31.9826C43.9826 38.6101 38.6101 43.9826 31.9826 43.9826H12C5.37258 43.9826 0 38.6101 0 31.9826V12Z" fill="#E67E22" fill-opacity="0.1"/>
<g clip-path="url(#clip0_95_3878)">
<mask id="mask0_95_3878" style="mask-type:luminance" maskUnits="userSpaceOnUse" x="13" y="13" width="18" height="18">
<path d="M13.002 13.002H30.9823V30.9823H13.002V13.002Z" fill="white"/>
</mask>
<g mask="url(#mask0_95_3878)">
<path d="M25.3634 21.9921C25.3634 22.7717 25.3213 23.5232 25.2476 24.2397H18.7367C18.6594 23.5232 18.6208 22.7717 18.6208 21.9921C18.6208 21.2125 18.6629 20.461 18.7367 19.7446H25.2476C25.3248 20.461 25.3634 21.2125 25.3634 21.9921ZM26.3748 19.7446H30.6978C30.884 20.4645 30.9823 21.216 30.9823 21.9921C30.9823 22.7682 30.884 23.5197 30.6978 24.2397H26.3748C26.4485 23.5162 26.4872 22.7647 26.4872 21.9921C26.4872 21.2195 26.4485 20.468 26.3748 19.7446ZM30.3291 18.6208H26.2309C25.8797 16.3768 25.1843 14.498 24.2888 13.2969C27.0386 14.0239 29.2755 16.0186 30.3256 18.6208H30.3291ZM25.093 18.6208H18.8912C19.1054 17.3425 19.4355 16.2117 19.8394 15.2951C20.2081 14.4664 20.619 13.8659 21.0158 13.4866C21.4092 13.1143 21.7358 13.002 21.9921 13.002C22.2485 13.002 22.5751 13.1143 22.9684 13.4866C23.3652 13.8659 23.7761 14.4664 24.1449 15.2951C24.5522 16.2082 24.8788 17.339 25.093 18.6208ZM17.7534 18.6208H13.6551C14.7087 16.0186 16.9422 14.0239 19.6954 13.2969C18.7999 14.498 18.1046 16.3768 17.7534 18.6208ZM13.2864 19.7446H17.6094C17.5357 20.468 17.497 21.2195 17.497 21.9921C17.497 22.7647 17.5357 23.5162 17.6094 24.2397H13.2864C13.1003 23.5197 13.002 22.7682 13.002 21.9921C13.002 21.216 13.1003 20.4645 13.2864 19.7446ZM19.8394 28.6856C19.432 27.7725 19.1054 26.6417 18.8912 25.3634H25.093C24.8788 26.6417 24.5487 27.7725 24.1449 28.6856C23.7761 29.5144 23.3652 30.1148 22.9684 30.4941C22.5751 30.8699 22.2485 30.9823 21.9921 30.9823C21.7358 30.9823 21.4092 30.8699 21.0158 30.4976C20.619 30.1184 20.2081 29.5179 19.8394 28.6891V28.6856ZM17.7534 25.3634C18.1046 27.6075 18.7999 29.4862 19.6954 30.6873C16.9422 29.9604 14.7087 27.9657 13.6551 25.3634H17.7534ZM30.3291 25.3634C29.2755 27.9657 27.0421 29.9604 24.2923 30.6873C25.1878 29.4862 25.8797 27.6075 26.2344 25.3634H30.3291Z" fill="#E67E22"/>
</g>
</g>
<defs>
<clipPath id="clip0_95_3878">
<rect width="17.9803" height="17.9803" fill="white" transform="translate(13.002 13.002)"/>
</clipPath>
</defs>
</svg>
