<svg width="44" height="44" viewBox="0 0 44 44" fill="none" xmlns="http://www.w3.org/2000/svg">
<path d="M0 12C0 5.37258 5.37258 0 12 0H31.9826C38.6101 0 43.9826 5.37258 43.9826 12V31.9826C43.9826 38.6101 38.6101 43.9826 31.9826 43.9826H12C5.37258 43.9826 0 38.6101 0 31.9826V12Z" fill="#E67E22" fill-opacity="0.1"/>
<g clip-path="url(#clip0_95_3852)">
<mask id="mask0_95_3852" style="mask-type:luminance" maskUnits="userSpaceOnUse" x="15" y="13" width="14" height="18">
<path d="M15.2402 13.002H28.7255V30.9823H15.2402V13.002Z" fill="white"/>
</mask>
<g mask="url(#mask0_95_3852)">
<path d="M22.8151 30.5328C24.6167 28.2782 28.7255 22.8139 28.7255 19.7446C28.7255 16.0221 25.7054 13.002 21.9829 13.002C18.2604 13.002 15.2402 16.0221 15.2402 19.7446C15.2402 22.8139 19.349 28.2782 21.1506 30.5328C21.5825 31.0701 22.3832 31.0701 22.8151 30.5328ZM21.9829 17.497C22.5789 17.497 23.1506 17.7338 23.5721 18.1553C23.9936 18.5768 24.2304 19.1485 24.2304 19.7446C24.2304 20.3407 23.9936 20.9123 23.5721 21.3338C23.1506 21.7553 22.5789 21.9921 21.9829 21.9921C21.3868 21.9921 20.8151 21.7553 20.3936 21.3338C19.9721 20.9123 19.7353 20.3407 19.7353 19.7446C19.7353 19.1485 19.9721 18.5768 20.3936 18.1553C20.8151 17.7338 21.3868 17.497 21.9829 17.497Z" fill="#E67E22"/>
</g>
</g>
<defs>
<clipPath id="clip0_95_3852">
<rect width="13.4951" height="17.9803" fill="white" transform="translate(15.2344 13.002)"/>
</clipPath>
</defs>
</svg>
