<svg width="32" height="32" viewBox="0 0 32 32" fill="none" xmlns="http://www.w3.org/2000/svg">
<path d="M0 4C0 1.79086 1.79086 0 4 0H27.9892C30.1983 0 31.9892 1.79086 31.9892 4V27.9892C31.9892 30.1983 30.1983 31.9892 27.9892 31.9892H4C1.79086 31.9892 0 30.1983 0 27.9892V4Z" fill="#0F2137"/>
<g clip-path="url(#clip0_95_4049)">
<path d="M12.7736 9.25132C12.7736 8.71853 13.2041 8.28809 13.7369 8.28809H17.5898C18.1226 8.28809 18.553 8.71853 18.553 9.25132V10.2145H19.9979C20.7955 10.2145 21.4427 10.8617 21.4427 11.6594V15.5123L22.7792 15.9578C23.4745 16.1896 23.6671 17.0866 23.1253 17.5802L20.0852 20.3676C19.5975 20.6506 19.0406 20.8222 18.553 20.8222C17.963 20.8222 17.3249 20.5904 16.771 20.2111C16.1058 19.7445 15.2178 19.7445 14.5526 20.2111C14.0379 20.5663 13.4088 20.8222 12.7706 20.8222C12.283 20.8222 11.7261 20.6506 11.2385 20.3676L8.19827 17.5802C7.65646 17.0836 7.8491 16.1896 8.54444 15.9578L9.88393 15.5123V11.6594C9.88393 10.8617 10.5311 10.2145 11.3288 10.2145H12.7736V9.25132ZM11.8104 14.8712L15.0553 13.7905C15.4496 13.6581 15.877 13.6581 16.2744 13.7905L19.5162 14.8712V12.141H11.8104V14.8712ZM16.2202 20.9877C16.8975 21.4542 17.7252 21.7733 18.553 21.7733C19.3627 21.7733 20.2206 21.4482 20.8828 20.9877C21.2411 20.7318 21.7287 20.7529 22.0628 21.0389C22.4963 21.397 23.0411 21.671 23.5859 21.7974C24.1036 21.9178 24.4257 22.4355 24.3053 22.9533C24.1849 23.471 23.6671 23.7931 23.1495 23.6727C22.4119 23.5012 21.7979 23.1761 21.3976 22.9202C20.5246 23.3898 19.5464 23.6998 18.553 23.6998C17.5928 23.6998 16.7289 23.4018 16.1329 23.1308C15.9583 23.0496 15.7988 22.9713 15.6633 22.8991C15.5279 22.9713 15.3713 23.0526 15.1937 23.1308C14.5977 23.4018 13.7338 23.6998 12.7736 23.6998C11.7803 23.6998 10.802 23.3898 9.92908 22.9232C9.52573 23.1761 8.91468 23.5042 8.1772 23.6757C7.65947 23.7961 7.14173 23.474 7.02133 22.9563C6.90092 22.4386 7.223 21.9209 7.74074 21.8004C8.28556 21.674 8.83039 21.4001 9.26385 21.0419C9.59797 20.7589 10.0856 20.7378 10.4438 20.9907C11.109 21.4482 11.9639 21.7733 12.7736 21.7733C13.6014 21.7733 14.4292 21.4542 15.1065 20.9877C15.4406 20.7499 15.8861 20.7499 16.2202 20.9877Z" fill="white"/>
</g>
<defs>
<clipPath id="clip0_95_4049">
<rect width="17.9803" height="15.9847" fill="white" transform="translate(6.99414 8.00195)"/>
</clipPath>
</defs>
</svg>
