<svg width="82" height="18" viewBox="0 0 82 18" fill="none" xmlns="http://www.w3.org/2000/svg">
<g clip-path="url(#clip0_95_3815)">
<path d="M23.1287 2.0764H26.8093L29.9307 9.55216H30.0738L33.1959 2.0764H36.8757V14.1518H33.9818V6.73483H33.8797L30.927 14.0744H29.0774L26.1247 6.69306H26.0226V14.1518H23.1287V2.0764ZM38.0523 14.1518V5.09564H40.988V14.1518H38.0523ZM39.5229 4.03972C39.1291 4.04668 38.7486 3.9028 38.4608 3.63901C38.1645 3.36826 38.016 3.04182 38.016 2.65967C38.016 2.28295 38.1645 1.96037 38.4616 1.69349C38.747 1.42583 39.1284 1.2804 39.5229 1.28659C39.9391 1.28659 40.2941 1.42197 40.585 1.69349C40.8813 1.96037 41.029 2.28217 41.029 2.65967C41.029 3.04182 40.8813 3.36826 40.585 3.63901C40.2934 3.90589 39.9398 4.03972 39.5229 4.03972ZM45.115 8.98669V14.1518H42.1793V5.09564H44.9711V6.75804H45.0732C45.2775 6.20339 45.6248 5.76942 46.1168 5.45457C46.6095 5.13664 47.1951 4.97728 47.8766 4.97728C48.5241 4.97728 49.0865 5.12039 49.563 5.40816C50.0434 5.69129 50.431 6.10437 50.6793 6.59868C50.9477 7.10614 51.0808 7.69947 51.0754 8.37943V14.1518H48.1404V8.94491C48.1443 8.44209 48.0151 8.04912 47.7506 7.766C47.4899 7.48287 47.1278 7.34131 46.6629 7.34131C46.3558 7.34131 46.0835 7.40861 45.8468 7.54166C45.6147 7.67162 45.4268 7.86733 45.3076 8.1025C45.1831 8.34617 45.1197 8.64013 45.115 8.98669ZM57.4217 5.09487V7.21754H51.6045V5.09564H57.4209L57.4217 5.09487ZM52.8228 2.92501H55.7585V11.3035C55.7585 11.4807 55.7864 11.6238 55.8421 11.7344C55.8993 11.8373 55.9898 11.9185 56.1004 11.9641C56.2126 12.0075 56.3464 12.0291 56.5027 12.0291C56.6156 12.0291 56.7325 12.0191 56.857 11.9997C56.9846 11.9758 57.0806 11.9564 57.1448 11.9402L57.5888 14.0218C57.4496 14.0613 57.2507 14.11 56.9947 14.1696C56.6969 14.2338 56.3929 14.2709 56.0881 14.281C55.4004 14.3119 54.8101 14.2338 54.3181 14.045C53.8293 13.8532 53.4548 13.5546 53.1957 13.1493C52.9389 12.7439 52.8151 12.2349 52.8228 11.6222V2.92501ZM61.3754 2.0764V14.1518H58.4405V2.0764H61.3754ZM62.5682 14.1518V5.09564H65.5032V14.1518H62.5682ZM64.0388 4.03972C63.6451 4.04668 63.2637 3.9028 62.9759 3.63901C62.6804 3.36826 62.5319 3.04182 62.5319 2.65967C62.5319 2.28295 62.6804 1.96037 62.9759 1.69349C63.2621 1.42583 63.6435 1.27963 64.0388 1.28659C64.455 1.28659 64.8093 1.42197 65.1009 1.69349C65.3972 1.96037 65.5449 2.28217 65.5449 2.65967C65.5449 3.04182 65.3972 3.36826 65.1009 3.63901C64.8093 3.90589 64.455 4.03972 64.0388 4.03972ZM71.9361 5.09564V7.21754H66.0044V5.09564H71.9361ZM67.2414 14.1518V4.63537C67.2414 3.93606 67.376 3.35589 67.6436 2.89561C67.8981 2.44462 68.288 2.08259 68.7599 1.85826C69.2364 1.62619 69.7864 1.51015 70.4114 1.51015C70.8191 1.51015 71.2028 1.54187 71.5633 1.60453C71.9276 1.66332 72.1976 1.7167 72.3732 1.76388L71.906 3.87495C71.776 3.83472 71.6437 3.80455 71.5091 3.78599C71.3668 3.76356 71.2221 3.75195 71.0775 3.75118C70.7325 3.75118 70.4973 3.82544 70.3689 3.97551C70.2405 4.12404 70.1771 4.32903 70.1771 4.58818V14.151L67.2414 14.1518ZM74.4657 17.5478C74.1323 17.5493 73.7989 17.5215 73.4701 17.465C73.1955 17.4232 72.9255 17.3544 72.6656 17.2584L73.3139 15.1652C73.6024 15.2595 73.8623 15.3145 74.0944 15.3307C74.3303 15.3462 74.5322 15.3091 74.7009 15.2185C74.8726 15.1327 75.0049 14.9764 75.0969 14.7529L75.2107 14.4813L71.9331 5.09564H75.0064L76.7052 11.5573H76.8011L78.5241 5.09564H81.6153L78.1396 15.0182C77.9834 15.4932 77.742 15.9364 77.4256 16.3271C77.1214 16.7084 76.7276 17.007 76.2434 17.2229C75.763 17.4395 75.1704 17.5478 74.4657 17.5478ZM4.65201 6.42154C4.66439 4.76997 5.3312 3.18802 6.5109 2.01142H6.50857L1.95381 6.48574H1.95535C1.93911 6.49889 1.92286 6.51282 1.90817 6.52829C-0.381597 8.77473 -0.642287 12.3331 1.29782 14.8782L5.89746 10.359L5.94542 10.3141C5.0883 9.19245 4.63345 7.82401 4.65201 6.42154ZM17.6626 6.48574V0.389255C17.6626 0.226806 17.528 0.0945262 17.3625 0.0937527H11.1562C9.43033 0.0922055 7.77412 0.765983 6.55576 1.96733L6.5109 2.01142L6.50393 2.01761C5.92376 2.60166 5.67312 3.60652 5.65301 4.71504C7.33861 4.49148 9.04587 4.92932 10.4058 5.93187C11.4323 6.68377 12.2098 7.71726 12.6391 8.90237C12.9779 9.8407 13.0901 10.844 12.9671 11.8319C14.1127 11.7599 15.1787 11.5132 15.6653 11.0931L15.7109 11.0482L15.7566 11.0065C16.9788 9.80821 17.665 8.1814 17.6626 6.48574ZM15.7117 11.0513C13.9325 12.7632 11.3163 13.3295 8.96929 12.5095C8.35662 12.296 7.78031 11.9912 7.26048 11.6068L2.61289 16.1693C5.20434 18.0691 8.82231 17.8139 11.1113 15.5697L15.7117 11.0513Z" fill="#151516"/>
</g>
<defs>
<clipPath id="clip0_95_3815">
<rect width="81.9982" height="17.9803" fill="white"/>
</clipPath>
</defs>
</svg>
