<svg width="90" height="21" viewBox="0 0 90 21" fill="none" xmlns="http://www.w3.org/2000/svg">
<g clip-path="url(#clip0_95_3802)">
<path d="M0.0961332 8.9867C0.046913 9.33278 0.0146122 9.68193 0 10.0311H15.6889C15.6313 9.92496 15.5636 9.82498 15.4859 9.73192C12.8042 6.2519 11.3614 6.55337 9.29723 6.46493C8.60969 6.43648 8.14287 6.42494 5.40345 6.42494C3.93762 6.42494 2.34411 6.42879 0.792137 6.43263C0.591412 6.97713 0.397606 7.50548 0.303011 7.93462H8.34282V8.9867H0.0961332ZM15.812 11.0839H0.00845949C0.0246099 11.3646 0.0507582 11.6415 0.0884425 11.9145H14.6792C15.3298 11.9145 15.6935 11.5438 15.812 11.0839ZM0.907497 14.7839C0.907497 14.7839 3.32775 20.7496 10.317 20.8557C14.4946 20.8557 18.0838 18.3631 19.7142 14.7839H0.907497ZM10.3162 0.109375C6.45323 0.109375 3.09241 2.23969 1.31741 5.38901C2.68019 5.3867 4.04298 5.38593 5.40576 5.38516H5.40653V5.38363C8.59969 5.38363 8.71813 5.39824 9.34261 5.42439L9.72868 5.43823C11.0738 5.4836 12.7273 5.62819 14.0285 6.61721C14.7353 7.15401 15.7543 8.33761 16.3619 9.1805C16.9241 9.96033 17.0863 10.8571 16.7041 11.7161C16.3526 12.5059 15.5959 12.9766 14.6792 12.9766H0.336851C0.336851 12.9766 0.422215 13.3404 0.54988 13.7418H20.128C20.4756 12.6921 20.6533 11.5931 20.6548 10.4871C20.6548 4.7553 16.0266 0.109375 10.3162 0.109375ZM31.0441 15.8521H33.4805V11.7492H35.2578L37.4412 15.8514H40.1306L37.6834 11.3531C38.9939 10.7886 39.7199 9.64117 39.7199 8.0592C39.7199 5.75893 38.2072 4.27848 35.5908 4.27848H31.0441V15.8521ZM33.4805 9.78268V6.27882H35.1232C36.5291 6.27882 37.2105 6.90561 37.2105 8.0592C37.2105 9.20588 36.5291 9.78268 35.134 9.78268H33.4805ZM43.8606 16.0152C45.1372 16.0152 45.9647 15.4561 46.3862 14.6486H46.4539V15.8521H48.7264V9.99725C48.7264 7.92846 46.983 7.05865 45.0588 7.05865C42.9877 7.05865 41.6264 8.05305 41.295 9.63502L43.5114 9.81652C43.6752 9.23972 44.1867 8.81596 45.0472 8.81596C45.8632 8.81596 46.33 9.22818 46.33 9.94111V9.97418C46.33 10.5341 45.7394 10.6071 44.2366 10.7548C42.527 10.9132 40.9912 11.4892 40.9912 13.4273C40.9912 15.1446 42.2117 16.0152 43.8606 16.0152ZM44.5466 14.354C43.8098 14.354 43.2807 14.0095 43.2807 13.3481C43.2807 12.6705 43.8375 12.3367 44.6819 12.2175C45.2049 12.1445 46.0601 12.0199 46.347 11.8276V12.7497C46.347 13.6588 45.5987 14.354 44.5466 14.354ZM50.586 15.8521H52.9832V7.1717H50.586V15.8521ZM51.7904 6.05271C52.5049 6.05271 53.0901 5.50437 53.0901 4.83221C53.0901 4.16543 52.5049 3.61708 51.7904 3.61708C51.0813 3.61708 50.4968 4.16543 50.4968 4.83221C50.4968 5.50437 51.0813 6.05271 51.7904 6.05271ZM57.2992 4.27848H54.9028V15.8521H57.2992V4.27848ZM60.9246 15.8521H63.4564L64.9414 10.3925H65.0476L66.5334 15.8521H69.0713L71.417 7.1717H68.9975L67.6808 12.9697H67.6078L66.1904 7.1717H63.8101L62.415 13.0035H62.3366L60.9969 7.1717H58.572L60.9246 15.8521ZM75.1592 16.0152C76.4366 16.0152 77.2634 15.4561 77.6856 14.6486H77.7533V15.8521H80.0259V9.99725C80.0259 7.92846 78.2816 7.05865 76.3582 7.05865C74.2871 7.05865 72.9259 8.05305 72.5944 9.63502L74.8108 9.81652C74.9739 9.23972 75.4861 8.81596 76.3467 8.81596C77.1626 8.81596 77.6295 9.22818 77.6295 9.94111V9.97418C77.6295 10.5341 77.0388 10.6071 75.5361 10.7548C73.8257 10.9132 72.2898 11.4892 72.2898 13.4273C72.2898 15.1446 73.5111 16.0152 75.1592 16.0152ZM75.846 14.354C75.1092 14.354 74.5801 14.0095 74.5801 13.3481C74.5801 12.6705 75.1369 12.3367 75.9814 12.2175C76.5043 12.1445 77.3595 12.0199 77.6464 11.8276V12.7497C77.6464 13.6588 76.8981 14.354 75.846 14.354ZM83.056 19.1068C84.8395 19.1068 85.7846 18.1909 86.2738 16.7896L89.633 7.18324L87.0951 7.1717L85.2894 13.5457H85.1994L83.4105 7.1717H80.8895L83.9896 16.0998L83.8489 16.4682C83.5336 17.2811 82.9322 17.3203 82.0877 17.0611L81.5479 18.8584C81.8909 19.0045 82.4484 19.1068 83.056 19.1068Z" fill="#151516"/>
</g>
<defs>
<clipPath id="clip0_95_3802">
<rect width="89.9807" height="20.9836" fill="white"/>
</clipPath>
</defs>
</svg>
