<svg width="14" height="16" viewBox="0 0 14 16" fill="none" xmlns="http://www.w3.org/2000/svg">
<g clip-path="url(#clip0_95_3892)">
<path d="M13.6952 8.69827C14.0854 8.30803 14.0854 7.67425 13.6952 7.28401L8.69988 2.28879C8.30964 1.89853 7.67586 1.89853 7.28561 2.28879C6.89536 2.67903 6.89536 3.3128 7.28561 3.70305L10.5793 6.99365H1.001C0.448401 6.99365 0.00195312 7.4401 0.00195312 7.9927C0.00195312 8.5453 0.448401 8.99174 1.001 8.99174H10.5762L7.28873 12.2823C6.89847 12.6726 6.89847 13.3064 7.28873 13.6966C7.67898 14.0869 8.31275 14.0869 8.70301 13.6966L13.6982 8.7014L13.6952 8.69827Z" fill="white"/>
</g>
<defs>
<clipPath id="clip0_95_3892">
<rect width="13.9891" height="15.9847" fill="white"/>
</clipPath>
</defs>
</svg>
