<svg width="44" height="44" viewBox="0 0 44 44" fill="none" xmlns="http://www.w3.org/2000/svg">
<path d="M0 12C0 5.37258 5.37258 0 12 0H31.9826C38.6101 0 43.9826 5.37258 43.9826 12V31.9826C43.9826 38.6101 38.6101 43.9826 31.9826 43.9826H12C5.37258 43.9826 0 38.6101 0 31.9826V12Z" fill="#E67E22" fill-opacity="0.1"/>
<g clip-path="url(#clip0_95_3865)">
<mask id="mask0_95_3865" style="mask-type:luminance" maskUnits="userSpaceOnUse" x="13" y="13" width="18" height="18">
<path d="M13.002 13.002H30.9823V30.9823H13.002V13.002Z" fill="white"/>
</mask>
<g mask="url(#mask0_95_3865)">
<path d="M21.9927 13.002C22.1543 13.002 22.3158 13.0371 22.4633 13.1038L29.076 15.9097C29.8487 16.2363 30.4245 16.9984 30.421 17.9185C30.4034 21.4021 28.9706 27.776 22.9199 30.6732C22.3334 30.9542 21.6521 30.9542 21.0656 30.6732C15.0148 27.776 13.582 21.4021 13.5645 17.9185C13.561 16.9984 14.1369 16.2363 14.9095 15.9097L21.5257 13.1038C21.6697 13.0371 21.8312 13.002 21.9927 13.002ZM21.9927 15.3478V28.6224C26.839 26.2765 28.1419 21.0826 28.1735 17.9676L21.9927 15.3478Z" fill="#E67E22"/>
</g>
</g>
<defs>
<clipPath id="clip0_95_3865">
<rect width="17.9803" height="17.9803" fill="white" transform="translate(13.002 13.002)"/>
</clipPath>
</defs>
</svg>
